<?xml version="1.0" standalone="no"?>
<!DOCTYPE svg PUBLIC "-//W3C//DTD SVG 20010904//EN"
 "http://www.w3.org/TR/2001/REC-SVG-20010904/DTD/svg10.dtd">
<svg version="1.0" xmlns="http://www.w3.org/2000/svg"
 width="390.000000pt" height="510.000000pt" viewBox="0 0 390.000000 510.000000"
 preserveAspectRatio="xMidYMid meet">

<g transform="translate(0.000000,510.000000) scale(0.100000,-0.100000)"
fill="#000000" stroke="none">
<path d="M1975 4884 c-16 -2 -70 -9 -120 -14 -98 -12 -214 -37 -230 -50 -6 -5
-46 -23 -90 -41 -43 -17 -97 -43 -119 -57 -62 -38 -268 -254 -303 -316 -7 -11
-19 -55 -28 -96 -9 -41 -24 -111 -34 -155 -23 -103 -20 -392 5 -468 9 -26 13
-55 10 -63 -3 -8 1 -25 9 -37 7 -12 17 -47 20 -77 4 -30 10 -64 15 -75 18 -42
30 -88 25 -95 -3 -5 -1 -11 4 -15 5 -3 13 16 17 42 10 68 70 257 98 311 16 31
26 71 30 116 3 41 12 76 21 86 8 9 15 21 15 26 0 16 41 36 83 39 22 1 48 10
58 19 11 9 21 16 24 16 2 0 19 10 38 23 21 14 64 28 108 35 41 7 98 17 127 22
29 5 59 7 67 3 8 -3 15 0 15 7 0 6 5 8 10 5 6 -4 17 -1 26 5 19 17 189 29 239
17 22 -5 51 -10 64 -12 13 -1 27 -8 31 -16 7 -10 11 -10 24 1 9 7 19 10 23 6
3 -3 1 -6 -6 -6 -10 0 -8 -8 4 -27 12 -18 14 -28 7 -31 -17 -5 -15 -22 3 -22
11 0 14 -7 9 -24 -4 -16 -1 -25 10 -29 19 -8 10 -37 -12 -37 -13 0 -12 -3 3
-20 17 -19 17 -21 0 -40 -18 -19 -17 -20 3 -20 17 0 22 -6 22 -26 0 -32 15
-48 64 -64 27 -8 34 -15 25 -21 -7 -4 -17 -5 -22 -2 -4 3 -14 -2 -20 -11 -7
-8 -28 -17 -47 -20 -181 -22 -221 -31 -260 -56 -8 -5 -33 -17 -55 -27 -22 -9
-42 -19 -45 -22 -3 -4 -15 -11 -27 -18 -17 -10 -22 -9 -27 2 -3 8 -13 15 -23
15 -10 0 -31 7 -47 15 -20 10 -33 12 -41 5 -8 -7 -17 -4 -30 9 -20 23 -59 33
-135 36 -30 1 -93 8 -139 16 l-84 13 -38 -43 c-31 -35 -39 -51 -39 -82 0 -38
1 -39 28 -33 15 4 34 13 43 21 21 17 148 34 172 21 9 -5 17 -13 17 -18 0 -6 1
-13 3 -17 1 -4 -11 -8 -28 -9 -16 0 -57 -4 -90 -8 -51 -7 -65 -13 -92 -44 -18
-20 -33 -39 -33 -43 0 -15 40 -30 78 -28 20 1 50 -2 66 -6 29 -8 29 -8 13 16
-10 13 -17 27 -17 31 0 18 34 6 58 -20 36 -38 78 -36 101 4 9 16 17 31 18 33
1 2 16 -2 33 -9 35 -15 32 -20 -18 -37 -35 -11 -33 -12 27 -6 71 6 66 12 45
-57 -6 -18 -4 -19 17 -10 13 6 32 13 41 16 22 8 42 60 41 106 -1 22 2 36 7 33
6 -3 7 1 4 9 -3 9 -5 16 -3 16 2 1 21 3 42 6 23 4 37 2 37 -5 0 -6 12 -11 28
-11 24 -1 25 -2 10 -14 -22 -16 -23 -26 -4 -26 8 0 16 -16 20 -40 3 -23 10
-49 15 -58 14 -26 69 -164 76 -190 4 -14 13 -22 23 -20 9 1 23 -1 30 -6 18
-11 28 0 15 16 -15 19 -25 108 -12 108 6 0 7 5 4 10 -3 6 1 10 9 10 23 0 20
21 -9 60 -40 55 -35 63 38 55 59 -6 60 -5 35 9 -15 8 -35 16 -45 18 -15 3 -14
7 9 22 l28 18 35 -36 c19 -20 41 -36 49 -36 7 0 19 -7 26 -15 11 -13 8 -15
-16 -15 -16 0 -39 -3 -52 -6 -23 -6 -22 -7 5 -21 21 -11 49 -13 113 -9 47 3
94 6 105 7 43 3 85 21 85 37 0 9 7 25 15 36 13 18 15 18 59 -3 33 -16 43 -26
39 -38 -5 -12 -3 -14 8 -8 10 7 9 2 -3 -17 -9 -14 -17 -44 -16 -67 0 -28 -5
-46 -16 -54 -9 -7 -18 -22 -20 -34 -7 -33 -36 -73 -55 -73 -14 0 -14 -2 -1
-10 12 -8 12 -10 -3 -16 -9 -3 -17 -12 -17 -20 0 -7 -10 -19 -22 -25 -27 -14
-57 -49 -58 -66 0 -18 -41 -57 -60 -58 -8 -1 -29 -2 -47 -3 -26 -2 -31 -5 -26
-19 5 -13 -1 -12 -35 7 -23 13 -42 28 -42 32 0 5 -4 7 -9 4 -7 -5 -36 6 -80
31 -2 1 2 15 8 31 8 19 9 36 2 53 -7 17 -10 19 -10 7 -1 -21 -41 -33 -79 -23
-57 14 -74 12 -104 -17 -40 -37 -80 -37 -125 2 -39 35 -40 35 -93 14 -44 -18
-50 -36 -19 -57 25 -18 18 -22 -43 -31 -27 -4 -48 -11 -48 -15 0 -4 -21 -15
-46 -26 -25 -10 -53 -28 -62 -40 -27 -34 -63 -50 -73 -34 -6 9 -6 0 -2 -21 3
-19 10 -36 15 -38 4 -2 8 -14 8 -26 0 -12 5 -27 12 -34 9 -9 9 -12 -1 -12 -10
0 -10 -5 2 -23 9 -14 12 -29 7 -38 -11 -19 -13 -104 -4 -141 5 -22 1 -29 -25
-42 -17 -9 -31 -22 -31 -28 0 -7 -6 -4 -13 7 -9 12 -16 14 -21 7 -4 -6 -13 -9
-20 -6 -8 3 -17 1 -21 -5 -3 -6 4 -15 18 -20 34 -13 63 -111 32 -111 -8 0 -15
8 -15 17 0 14 -2 15 -12 4 -10 -11 -10 -14 0 -18 7 -3 12 -22 12 -44 0 -29 4
-39 16 -39 9 0 18 -9 21 -20 3 -11 11 -20 19 -20 7 0 18 -9 24 -20 6 -11 16
-20 22 -20 6 0 19 -10 30 -22 18 -22 18 -23 1 -36 -17 -14 -16 -14 5 -9 13 3
34 0 48 -8 l25 -13 -30 -10 c-17 -6 -31 -15 -31 -21 0 -9 39 -30 83 -45 10 -3
16 -10 12 -15 -3 -6 8 -8 25 -6 18 2 30 -1 30 -7 0 -6 3 -9 6 -5 3 3 17 2 29
-3 16 -6 25 -5 28 3 4 9 7 9 17 0 11 -10 10 -14 -3 -19 -23 -8 -21 -21 3 -27
12 -3 20 -14 20 -27 0 -13 8 -24 20 -27 11 -3 20 -9 20 -14 0 -5 6 -9 14 -9 8
0 16 -6 19 -14 5 -13 35 -21 122 -32 22 -3 51 -7 65 -11 23 -5 24 -6 5 -13
-17 -7 -17 -9 -2 -9 11 -1 17 -9 17 -25 0 -19 7 -25 40 -34 32 -8 40 -7 40 4
0 8 10 14 26 14 20 0 25 -4 20 -16 -3 -9 -6 -18 -6 -20 0 -2 -27 -4 -60 -4
-51 0 -60 -3 -60 -18 0 -9 -9 -23 -20 -30 -35 -21 -22 -32 40 -32 33 0 60 4
60 10 0 6 18 10 40 10 25 0 40 5 40 13 1 6 9 2 19 -10 11 -13 24 -23 30 -23 6
0 11 -9 11 -19 0 -10 7 -22 16 -25 12 -5 15 -2 10 10 -4 11 -2 15 8 11 7 -3
19 0 25 6 8 8 11 6 11 -8 0 -18 1 -18 22 3 12 12 29 41 38 64 12 33 21 43 38
42 14 0 22 5 22 16 0 21 23 80 56 141 13 26 24 52 24 58 0 6 25 64 56 129 46
95 59 135 71 212 8 52 12 115 9 140 -3 25 -9 99 -12 165 -5 105 -3 136 20 248
14 71 26 131 26 133 0 2 14 4 30 4 17 0 30 5 30 10 0 6 -5 10 -11 10 -5 0 -7
5 -3 12 4 7 11 28 14 48 5 33 8 35 43 34 32 -1 37 1 32 17 -4 10 1 29 9 41 17
24 21 48 8 48 -4 0 -12 -10 -17 -22 -6 -13 -19 -24 -29 -26 -16 -3 -18 0 -11
19 17 52 17 128 0 173 -9 24 -14 49 -10 55 11 18 31 12 43 -11 10 -21 11 -20
11 13 1 19 -5 41 -11 48 -11 10 -8 16 11 32 21 17 22 23 13 44 -14 31 -44 32
-67 3 -16 -22 -16 -22 -1 4 9 15 16 37 16 48 0 12 7 34 15 50 8 15 17 64 19
107 5 83 20 183 37 247 6 21 11 51 11 67 1 29 18 42 18 15 0 -8 4 -17 8 -20
12 -7 8 34 -7 77 -7 21 -11 40 -9 43 5 4 22 -27 32 -59 8 -26 28 -10 20 16
-14 48 -48 110 -80 144 -19 20 -34 39 -34 43 0 3 -11 17 -25 30 -14 13 -25 27
-25 32 0 13 -42 71 -62 86 -10 7 -18 19 -18 26 0 7 -9 22 -21 34 -16 18 -19
30 -13 55 14 61 -4 187 -26 187 -8 0 -6 -40 5 -92 1 -9 -1 -18 -7 -20 -5 -2
-10 -13 -11 -26 l-1 -22 -23 24 c-13 14 -23 30 -23 36 0 15 -49 159 -60 179
-8 14 -9 13 -10 -2 0 -10 -3 -17 -7 -15 -5 2 -34 16 -66 32 -32 15 -61 26 -64
22 -3 -3 -29 7 -57 21 -72 37 -286 69 -381 57z m372 -1311 c-11 -3 -16 -11
-13 -18 3 -8 -3 -17 -15 -20 -21 -7 -59 2 -59 14 0 12 39 27 74 28 17 1 23 -1
13 -4z m356 -25 c2 -13 8 -32 13 -43 7 -17 6 -18 -8 -7 -9 7 -18 26 -20 42 -5
35 7 41 15 8z m-326 -104 c4 -12 -64 -60 -72 -52 -3 2 6 18 18 36 21 31 47 38
54 16z m-612 -4 c11 -17 -5 -32 -21 -19 -7 6 -11 15 -8 20 7 12 21 11 29 -1z
m977 -29 c2 -17 1 -28 -4 -25 -8 5 -12 54 -4 54 2 0 6 -13 8 -29z m-382 -41
c-20 -13 -40 -13 -40 0 0 6 12 10 28 10 21 0 24 -2 12 -10z m387 -102 c-2 -13
-4 -3 -4 22 0 25 2 35 4 23 2 -13 2 -33 0 -45z m78 -199 c10 -15 -1 -23 -20
-15 -9 3 -13 10 -10 16 8 13 22 13 30 -1z m-980 -80 c11 -17 2 -18 -19 -3 -17
12 -17 14 -4 14 9 0 20 -5 23 -11z m-85 -150 c0 -14 6 -19 17 -17 10 2 18 12
18 23 0 19 6 20 110 16 148 -5 153 -11 33 -42 -40 -10 -96 -19 -125 -19 -44 0
-55 4 -73 27 -15 20 -17 28 -8 34 17 11 28 2 28 -22z m-64 -1 c9 -13 -25 -40
-43 -34 -7 3 -17 -3 -22 -12 -6 -9 -11 -12 -11 -7 0 13 48 65 60 65 5 0 12 -5
16 -12z m364 -100 c30 -6 47 -13 38 -15 -9 -3 -23 -20 -30 -39 -6 -19 -16 -34
-21 -34 -5 0 -24 -7 -43 -16 -27 -13 -53 -15 -132 -10 -53 3 -114 8 -135 12
-31 5 -43 2 -71 -20 -19 -14 -40 -26 -46 -26 -6 0 -20 -9 -32 -20 -12 -10 -25
-17 -30 -14 -15 10 -8 33 13 45 12 6 17 14 12 18 -6 3 -13 16 -17 28 -7 22 14
36 59 37 11 1 19 7 18 14 -2 6 6 12 17 12 11 0 20 4 20 9 0 24 284 39 380 19z
m-520 -128 c0 -5 -4 -10 -10 -10 -5 0 -10 5 -10 10 0 6 5 10 10 10 6 0 10 -4
10 -10z m395 -80 c3 -5 21 -10 39 -10 32 0 33 -1 34 -42 1 -24 -2 -38 -6 -33
-10 14 -102 19 -102 5 0 -6 -12 -10 -27 -8 -17 2 -27 8 -25 16 2 9 -4 12 -17
7 -12 -3 -21 0 -25 11 -5 13 -12 10 -41 -17 -20 -19 -35 -43 -35 -56 0 -26
-25 -31 -34 -7 -3 8 -10 13 -16 9 -5 -3 -12 5 -16 19 -5 20 -11 23 -40 21 -18
-2 -36 0 -39 4 -6 11 42 32 59 25 8 -3 17 -1 20 5 4 6 13 8 21 5 8 -4 18 1 21
10 4 9 18 16 34 16 16 0 31 4 35 9 3 6 18 6 35 1 21 -6 41 -4 63 5 39 17 54
18 62 5z m152 -32 c-3 -8 -6 -5 -6 6 -1 11 2 17 5 13 3 -3 4 -12 1 -19z m-487
-3 c0 -15 -29 -35 -51 -35 -7 0 -2 11 11 25 27 28 40 32 40 10z m524 -29 c-6
-16 -8 -17 -16 -2 -11 19 0 42 13 29 6 -6 7 -18 3 -27z m-504 -467 c0 -5 -4
-9 -10 -9 -5 0 -10 7 -10 16 0 8 5 12 10 9 6 -3 10 -10 10 -16z m63 7 c3 -8
16 -16 29 -19 22 -4 22 -4 -2 -6 -25 -1 -50 14 -50 31 0 14 18 9 23 -6z m179
-151 c0 -5 -5 -11 -11 -13 -6 -2 -11 4 -11 13 0 9 5 15 11 13 6 -2 11 -8 11
-13z"/>
<path d="M1060 3400 c0 -19 3 -21 12 -12 9 9 9 15 0 24 -9 9 -12 7 -12 -12z"/>
<path d="M2901 3184 c0 -11 3 -14 6 -6 3 7 2 16 -1 19 -3 4 -6 -2 -5 -13z"/>
<path d="M1359 2269 l-1 -34 -8 30 c-7 27 -8 25 -10 -20 -3 -42 -4 -44 -7 -16
-3 24 -7 31 -13 21 -6 -10 -10 -7 -15 13 -4 15 -11 27 -16 27 -18 0 -8 -104
17 -178 25 -74 46 -122 139 -317 24 -49 53 -110 65 -135 12 -25 30 -62 42 -83
11 -21 21 -55 22 -75 2 -36 23 -82 38 -82 12 0 9 10 -7 26 -8 9 -15 31 -15 50
0 32 2 34 20 24 11 -6 20 -15 20 -20 0 -6 5 -10 10 -10 6 0 -1 21 -15 47 -17
30 -24 54 -20 70 3 13 1 23 -5 23 -5 0 -10 7 -10 15 0 9 -6 12 -17 9 -14 -5
-15 -4 -4 4 12 9 12 14 -4 38 -10 15 -18 42 -19 58 -1 20 -6 31 -16 31 -19 0
-39 25 -33 41 2 7 -1 15 -7 19 -8 5 -6 13 6 26 16 18 16 20 1 37 -10 10 -17
30 -17 44 0 15 -12 35 -30 51 -38 34 -39 57 -2 58 l27 1 -25 7 c-15 5 -24 14
-22 23 1 9 -5 22 -15 30 -31 23 -47 63 -34 86 16 29 14 67 -4 82 -13 11 -15 8
-16 -21z"/>
<path d="M1510 2016 c0 -2 7 -7 16 -10 8 -3 12 -2 9 4 -6 10 -25 14 -25 6z"/>
<path d="M1500 1950 c0 -5 5 -10 10 -10 6 0 10 5 10 10 0 6 -4 10 -10 10 -5 0
-10 -4 -10 -10z"/>
<path d="M2657 1603 c-2 -5 -14 -38 -26 -75 -15 -44 -32 -76 -49 -89 l-27 -22
30 7 c29 6 60 35 99 91 17 26 20 26 91 20 40 -3 95 -12 121 -20 42 -12 46 -12
33 1 -14 13 -236 94 -258 94 -6 0 -12 -3 -14 -7z"/>
<path d="M2220 1576 c0 -9 30 -14 35 -6 4 6 -3 10 -14 10 -12 0 -21 -2 -21 -4z"/>
<path d="M2474 1515 c-10 -39 0 -48 12 -10 6 19 7 35 3 35 -5 0 -11 -11 -15
-25z"/>
<path d="M2265 1500 c-3 -5 -1 -10 4 -10 6 0 11 5 11 10 0 6 -2 10 -4 10 -3 0
-8 -4 -11 -10z"/>
<path d="M1350 1411 c-42 -15 -87 -34 -100 -41 l-25 -14 25 -6 c14 -4 34 -3
45 1 11 4 59 13 108 20 48 7 87 15 87 19 0 10 -45 50 -56 50 -5 -1 -43 -14
-84 -29z"/>
<path d="M2333 1383 c-39 -4 -45 -9 -83 -65 -22 -34 -38 -64 -34 -67 3 -3 27
17 52 45 32 34 63 57 95 69 49 17 60 26 30 23 -10 -1 -37 -3 -60 -5z"/>
<path d="M1720 1333 c-43 -8 -43 -20 1 -27 43 -7 67 3 55 23 -7 11 -13 12 -56
4z"/>
<path d="M1155 1320 c-3 -5 -1 -10 4 -10 6 0 11 5 11 10 0 6 -2 10 -4 10 -3 0
-8 -4 -11 -10z"/>
<path d="M3886 44 c-8 -22 -8 -44 2 -44 4 0 8 14 9 30 2 33 -2 38 -11 14z"/>
<path d="M2680 25 c0 -15 4 -24 10 -20 6 4 8 11 5 16 -4 5 29 9 79 9 70 0 86
-3 86 -15 0 -8 5 -15 10 -15 17 0 11 37 -7 42 -10 2 -55 5 -100 7 l-83 2 0
-26z"/>
<path d="M2768 13 c7 -3 16 -2 19 1 4 3 -2 6 -13 5 -11 0 -14 -3 -6 -6z"/>
</g>
</svg>
